<?xml version="1.0" encoding="utf-8"?>
<!-- Generator: Adobe Illustrator 25.4.1, SVG Export Plug-In . SVG Version: 6.00 Build 0)  -->
<svg version="1.1" id="Artwork" xmlns="http://www.w3.org/2000/svg" xmlns:xlink="http://www.w3.org/1999/xlink" x="0px" y="0px"
	 viewBox="0 0 1080.6 935.9" style="enable-background:new 0 0 1080.6 935.9;" xml:space="preserve">
<style type="text/css">
	@media (prefers-color-scheme: light) {
      .st0{fill:#000000;}
    }

	@media (prefers-color-scheme: dark) {
      .st0{fill:#FFFFFF;}
    }

	.st0{fill:#67788A;}

</style>



<path class="st0" d="M553.2,0h-25.7L0,913.6l12.9,22.3h1054.9l12.9-22.3L553.2,0z M651.2,373.3l-96.1-55.5V206.9l96.1,55.5V373.3z
	 M777,591.1l-96.1-55.5V424.7l96.1,55.5V591.1z M555.2,497.3l96.1,55.5v110.9l-96.1-55.5V497.3z M525.5,608.2l-96.1,55.5V552.8
	l96.1-55.5V608.2z M540.3,633.9l96.1,55.5l-96.1,55.5l-96.1-55.5L540.3,633.9z M680.9,569.9l96.1,55.5v110.9l-96.1-55.5V569.9z
	 M651.2,518.5L555.2,463V352.1l96.1,55.5V518.5z M525.5,317.8l-96.1,55.5V262.3l96.1-55.5V317.8z M525.5,352.1V463l-96.1,55.5V407.5
	L525.5,352.1z M399.7,535.6l-96.1,55.5V480.2l96.1-55.5V535.6z M399.7,569.9v110.9l-96.1,55.5V625.4L399.7,569.9z M274,753.4
	l-96.1,55.5V698l96.1-55.5V753.4z M288.8,779.1l96.1,55.5l-96.1,55.5l-96.1-55.5L288.8,779.1z M318.5,762l96.1-55.5l96.1,55.5
	l-96.1,55.5L318.5,762z M540.3,779.1l96.1,55.5l-96.1,55.5l-96.1-55.5L540.3,779.1z M570,762l96.1-55.5l96.1,55.5l-96.1,55.5
	L570,762z M791.8,779.1l96.1,55.5l-96.1,55.5l-96.1-55.5L791.8,779.1z M902.7,808.9l-96.1-55.5V642.5l96.1,55.5V808.9z M806.7,608.2
	V498.4l95.1,164.7L806.7,608.2z M680.9,390.4V280.6L776,445.3L680.9,390.4z M555.2,172.6V62.8l95.1,164.7L555.2,172.6z M525.5,172.6
	l-95.1,54.9l95.1-164.6V172.6z M399.7,390.4l-95.1,54.9l95.1-164.6V390.4z M274,608.2l-95.1,54.9L274,498.5V608.2z M148.2,826
	l-95.1,54.9l95.1-164.7V826z M163,851.7l94.3,54.4H68.8L163,851.7z M414.6,851.7l94.3,54.4H320.3L414.6,851.7z M666.1,851.7
	l94.3,54.4H571.8L666.1,851.7z M917.6,851.7l94.3,54.4H823.3L917.6,851.7z M932.4,826V716.3l95.1,164.7L932.4,826z"/>
</svg>
